<mxfile host="Electron" modified="2024-03-31T11:46:13.912Z" agent="Mozilla/5.0 (Windows NT 10.0; Win64; x64) AppleWebKit/537.36 (KHTML, like Gecko) draw.io/21.6.5 Chrome/114.0.5735.243 Electron/25.3.1 Safari/537.36" etag="GGx9b96hhDTkJb8470NR" version="21.6.5" type="device">
  <diagram name="虚拟文件系统" id="3F8hn-3AIg7VuY_EQxJl">
    <mxGraphModel dx="3915" dy="844" grid="1" gridSize="10" guides="1" tooltips="1" connect="1" arrows="1" fold="1" page="1" pageScale="1" pageWidth="827" pageHeight="1169" math="0" shadow="0">
      <root>
        <mxCell id="0" />
        <mxCell id="1" parent="0" />
        <mxCell id="ueATrJBzEgM-RA0s99r3-1" value="struct bus_type {" style="swimlane;fontStyle=0;childLayout=stackLayout;horizontal=1;startSize=30;horizontalStack=0;resizeParent=1;resizeParentMax=0;resizeLast=0;collapsible=1;marginBottom=0;whiteSpace=wrap;html=1;fillColor=#008a00;strokeColor=#005700;fontColor=#ffffff;" vertex="1" parent="1">
          <mxGeometry x="-2383" y="74" width="140" height="60" as="geometry" />
        </mxCell>
        <mxCell id="ueATrJBzEgM-RA0s99r3-2" value="struct subsys_private *p;" style="rounded=0;whiteSpace=wrap;html=1;" vertex="1" parent="ueATrJBzEgM-RA0s99r3-1">
          <mxGeometry y="30" width="140" height="30" as="geometry" />
        </mxCell>
      </root>
    </mxGraphModel>
  </diagram>
</mxfile>
